<svg width="20" height="20" viewBox="0 0 20 20" fill="none" xmlns="http://www.w3.org/2000/svg">
<path d="M9.83014 2.14551C8.22576 2.14551 6.65741 2.62126 5.32342 3.5126C3.98943 4.40395 2.94971 5.67085 2.33574 7.1531C1.72178 8.63535 1.56113 10.2664 1.87413 11.8399C2.18713 13.4135 2.95971 14.8589 4.09418 15.9933C5.22864 17.1278 6.67404 17.9004 8.24759 18.2134C9.82114 18.5264 11.4522 18.3657 12.9344 17.7518C14.4167 17.1378 15.6836 16.0981 16.5749 14.7641C17.4663 13.4301 17.942 11.8618 17.942 10.2574C17.942 9.19211 17.7322 8.13728 17.3245 7.1531C16.9169 6.16892 16.3194 5.27468 15.5661 4.52142C14.8128 3.76816 13.9186 3.17065 12.9344 2.76299C11.9502 2.35533 10.8954 2.14551 9.83014 2.14551ZM9.83014 16.7469C8.54664 16.7469 7.29196 16.3663 6.22477 15.6532C5.15757 14.9401 4.3258 13.9266 3.83462 12.7408C3.34345 11.555 3.21494 10.2502 3.46533 8.99134C3.71573 7.7325 4.3338 6.57618 5.24137 5.66861C6.14894 4.76104 7.30526 4.14297 8.5641 3.89258C9.82294 3.64218 11.1278 3.77069 12.3136 4.26187C13.4994 4.75304 14.5129 5.58482 15.226 6.65201C15.939 7.7192 16.3196 8.97388 16.3196 10.2574C16.3196 11.9785 15.6359 13.6291 14.4189 14.8461C13.2019 16.0632 11.5513 16.7469 9.83014 16.7469Z" fill="#A2A2A2"/>
<path d="M12.0204 7.32907L8.95416 11.385L7.63193 9.6734C7.49961 9.50344 7.30521 9.393 7.09147 9.36638C6.87773 9.33976 6.66217 9.39913 6.49221 9.53144C6.32225 9.66376 6.21181 9.85817 6.18519 10.0719C6.15856 10.2856 6.21794 10.5012 6.35025 10.6712L8.32144 13.194C8.39783 13.2906 8.49524 13.3686 8.60628 13.422C8.71731 13.4755 8.83906 13.5029 8.96227 13.5022C9.08616 13.5019 9.20832 13.4732 9.31941 13.4184C9.43049 13.3636 9.52754 13.284 9.60311 13.1858L13.3102 8.31872C13.4415 8.14661 13.499 7.92941 13.4701 7.71491C13.4412 7.50041 13.3282 7.30618 13.1561 7.17495C12.984 7.04371 12.7668 6.98622 12.5523 7.01513C12.3378 7.04403 12.1436 7.15696 12.0123 7.32907H12.0204Z" fill="#A2A2A2"/>
</svg>
