<svg width="40" height="39" viewBox="0 0 40 39" fill="none" xmlns="http://www.w3.org/2000/svg">
<path d="M2.66667 21.6667H15.6667C16.2413 21.6667 16.7924 21.4384 17.1987 21.0321C17.6051 20.6257 17.8333 20.0746 17.8333 19.5V2.16667C17.8333 1.59203 17.6051 1.04093 17.1987 0.634602C16.7924 0.228273 16.2413 0 15.6667 0H2.66667C2.09203 0 1.54093 0.228273 1.1346 0.634602C0.728273 1.04093 0.5 1.59203 0.5 2.16667V19.5C0.5 20.0746 0.728273 20.6257 1.1346 21.0321C1.54093 21.4384 2.09203 21.6667 2.66667 21.6667ZM0.5 36.8333C0.5 37.408 0.728273 37.9591 1.1346 38.3654C1.54093 38.7717 2.09203 39 2.66667 39H15.6667C16.2413 39 16.7924 38.7717 17.1987 38.3654C17.6051 37.9591 17.8333 37.408 17.8333 36.8333V28.1667C17.8333 27.592 17.6051 27.0409 17.1987 26.6346C16.7924 26.2283 16.2413 26 15.6667 26H2.66667C2.09203 26 1.54093 26.2283 1.1346 26.6346C0.728273 27.0409 0.5 27.592 0.5 28.1667V36.8333ZM22.1667 36.8333C22.1667 37.408 22.3949 37.9591 22.8013 38.3654C23.2076 38.7717 23.7587 39 24.3333 39H37.3333C37.908 39 38.4591 38.7717 38.8654 38.3654C39.2717 37.9591 39.5 37.408 39.5 36.8333V21.6667C39.5 21.092 39.2717 20.5409 38.8654 20.1346C38.4591 19.7283 37.908 19.5 37.3333 19.5H24.3333C23.7587 19.5 23.2076 19.7283 22.8013 20.1346C22.3949 20.5409 22.1667 21.092 22.1667 21.6667V36.8333ZM24.3333 15.1667H37.3333C37.908 15.1667 38.4591 14.9384 38.8654 14.5321C39.2717 14.1257 39.5 13.5746 39.5 13V2.16667C39.5 1.59203 39.2717 1.04093 38.8654 0.634602C38.4591 0.228273 37.908 0 37.3333 0H24.3333C23.7587 0 23.2076 0.228273 22.8013 0.634602C22.3949 1.04093 22.1667 1.59203 22.1667 2.16667V13C22.1667 13.5746 22.3949 14.1257 22.8013 14.5321C23.2076 14.9384 23.7587 15.1667 24.3333 15.1667Z" fill="white"/>
</svg>
