<svg width="72" height="72" viewBox="0 0 72 72" fill="none" xmlns="http://www.w3.org/2000/svg">
<path d="M63 36C63 32.4543 62.3016 28.9433 60.9447 25.6675C59.5879 22.3918 57.5991 19.4153 55.0919 16.9081C52.5847 14.4009 49.6082 12.4121 46.3325 11.0553C43.0567 9.69837 39.5457 9 36 9C32.4543 9 28.9433 9.69837 25.6675 11.0553C22.3918 12.4121 19.4153 14.4009 16.9081 16.9081C14.4009 19.4153 12.4121 22.3918 11.0553 25.6675C9.69837 28.9433 9 32.4543 9 36C9 39.5457 9.69837 43.0567 11.0553 46.3325C12.4121 49.6082 14.4009 52.5847 16.9081 55.0919C19.4153 57.5991 22.3918 59.5879 25.6675 60.9447C28.9433 62.3016 32.4543 63 36 63C39.5457 63 43.0567 62.3016 46.3325 60.9447C49.6082 59.5879 52.5847 57.5991 55.0919 55.0919C57.5991 52.5847 59.5879 49.6082 60.9447 46.3325C62.3016 43.0567 63 39.5457 63 36ZM0 36C0 26.4522 3.79285 17.2955 10.5442 10.5442C17.2955 3.79285 26.4522 0 36 0C45.5478 0 54.7045 3.79285 61.4558 10.5442C68.2072 17.2955 72 26.4522 72 36C72 45.5478 68.2072 54.7045 61.4558 61.4558C54.7045 68.2072 45.5478 72 36 72C26.4522 72 17.2955 68.2072 10.5442 61.4558C3.79285 54.7045 0 45.5478 0 36ZM36 47.25C38.9837 47.25 41.8452 46.0647 43.955 43.955C46.0647 41.8452 47.25 38.9837 47.25 36C47.25 33.0163 46.0647 30.1548 43.955 28.045C41.8452 25.9353 38.9837 24.75 36 24.75C33.0163 24.75 30.1548 25.9353 28.045 28.045C25.9353 30.1548 24.75 33.0163 24.75 36C24.75 38.9837 25.9353 41.8452 28.045 43.955C30.1548 46.0647 33.0163 47.25 36 47.25ZM36 15.75C41.3706 15.75 46.5213 17.8835 50.3189 21.6811C54.1165 25.4787 56.25 30.6294 56.25 36C56.25 41.3706 54.1165 46.5213 50.3189 50.3189C46.5213 54.1165 41.3706 56.25 36 56.25C30.6294 56.25 25.4787 54.1165 21.6811 50.3189C17.8835 46.5213 15.75 41.3706 15.75 36C15.75 30.6294 17.8835 25.4787 21.6811 21.6811C25.4787 17.8835 30.6294 15.75 36 15.75ZM31.5 36C31.5 34.8065 31.9741 33.6619 32.818 32.818C33.6619 31.9741 34.8065 31.5 36 31.5C37.1935 31.5 38.3381 31.9741 39.182 32.818C40.0259 33.6619 40.5 34.8065 40.5 36C40.5 37.1935 40.0259 38.3381 39.182 39.182C38.3381 40.0259 37.1935 40.5 36 40.5C34.8065 40.5 33.6619 40.0259 32.818 39.182C31.9741 38.3381 31.5 37.1935 31.5 36Z" fill="white"/>
</svg>
