<svg width="28" height="29" viewBox="0 0 28 29" fill="none" xmlns="http://www.w3.org/2000/svg">
<path d="M25.5608 13.8411C24.8279 12.5699 20.7968 6.19108 13.9484 6.39722C7.61544 6.55755 3.95078 12.1232 2.95445 13.8411C2.85394 14.0151 2.80103 14.2126 2.80103 14.4137C2.80103 14.6147 2.85394 14.8122 2.95445 14.9863C3.67593 16.2345 7.53528 22.4301 14.2805 22.4301H14.5668C20.8998 22.2698 24.5759 16.7041 25.5608 14.9863C25.6613 14.8122 25.7142 14.6147 25.7142 14.4137C25.7142 14.2126 25.6613 14.0151 25.5608 13.8411ZM14.5096 20.1397C9.57374 20.2542 6.35571 16.0284 5.34793 14.4137C6.49314 12.5699 9.48213 8.80215 14.0629 8.68763C18.9759 8.56166 22.2054 12.7989 23.2246 14.4137C22.045 16.2574 19.0904 20.0252 14.5096 20.1397Z" fill="#A1A1A1"/>
<path d="M14.2575 10.4053C13.4647 10.4053 12.6898 10.6404 12.0306 11.0808C11.3715 11.5212 10.8577 12.1472 10.5544 12.8796C10.251 13.612 10.1716 14.4179 10.3263 15.1955C10.4809 15.973 10.8627 16.6872 11.4233 17.2477C11.9838 17.8083 12.698 18.19 13.4755 18.3447C14.253 18.4994 15.059 18.42 15.7914 18.1166C16.5238 17.8132 17.1498 17.2995 17.5902 16.6403C18.0306 15.9812 18.2657 15.2062 18.2657 14.4135C18.2657 13.3504 17.8434 12.3309 17.0917 11.5793C16.34 10.8276 15.3205 10.4053 14.2575 10.4053ZM14.2575 16.1313C13.9177 16.1313 13.5856 16.0306 13.3031 15.8418C13.0206 15.653 12.8005 15.3848 12.6704 15.0709C12.5404 14.757 12.5064 14.4116 12.5727 14.0784C12.639 13.7451 12.8026 13.4391 13.0428 13.1988C13.2831 12.9586 13.5891 12.795 13.9224 12.7287C14.2556 12.6624 14.601 12.6964 14.9149 12.8264C15.2288 12.9565 15.497 13.1766 15.6858 13.4591C15.8745 13.7416 15.9753 14.0737 15.9753 14.4135C15.9753 14.8691 15.7943 15.306 15.4722 15.6282C15.15 15.9503 14.7131 16.1313 14.2575 16.1313Z" fill="#A1A1A1"/>
</svg>
