<svg width="68" height="67" viewBox="0 0 68 67" fill="none" xmlns="http://www.w3.org/2000/svg">
<path d="M29.8438 47.7969H46.4688V51.9531H29.8438V47.7969ZM21.5312 47.7969H25.6875V51.9531H21.5312V47.7969ZM29.8438 37.4062H46.4688V41.5625H29.8438V37.4062ZM21.5312 37.4062H25.6875V41.5625H21.5312V37.4062ZM29.8438 27.0156H46.4688V31.1719H29.8438V27.0156ZM21.5312 27.0156H25.6875V31.1719H21.5312V27.0156Z" fill="white"/>
<path d="M52.7031 10.3906H46.4688V8.3125C46.4688 7.21019 46.0309 6.15304 45.2514 5.37359C44.472 4.59414 43.4148 4.15625 42.3125 4.15625H25.6875C24.5852 4.15625 23.528 4.59414 22.7486 5.37359C21.9691 6.15304 21.5312 7.21019 21.5312 8.3125V10.3906H15.2969C14.1946 10.3906 13.1374 10.8285 12.358 11.608C11.5785 12.3874 11.1406 13.4446 11.1406 14.5469V58.1875C11.1406 59.2898 11.5785 60.347 12.358 61.1264C13.1374 61.9059 14.1946 62.3438 15.2969 62.3438H52.7031C53.8054 62.3438 54.8626 61.9059 55.642 61.1264C56.4215 60.347 56.8594 59.2898 56.8594 58.1875V14.5469C56.8594 13.4446 56.4215 12.3874 55.642 11.608C54.8626 10.8285 53.8054 10.3906 52.7031 10.3906ZM25.6875 8.3125H42.3125V16.625H25.6875V8.3125ZM52.7031 58.1875H15.2969V14.5469H21.5312V20.7812H46.4688V14.5469H52.7031V58.1875Z" fill="white"/>
</svg>
