<svg width="76" height="65" viewBox="0 0 76 65" fill="none" xmlns="http://www.w3.org/2000/svg">
<path d="M7.06562 38.3378L33.8883 63.3819C35.0016 64.421 36.4711 65 38 65C39.5289 65 40.9984 64.421 42.1117 63.3819L68.9344 38.3378C73.4469 34.1366 76 28.243 76 22.0822V21.2212C76 10.8444 68.5039 1.99656 58.2766 0.28935C51.5078 -0.838892 44.6203 1.37306 39.7812 6.21262L38 7.99406L36.2188 6.21262C31.3797 1.37306 24.4922 -0.838892 17.7234 0.28935C7.49609 1.99656 0 10.8444 0 21.2212V22.0822C0 28.243 2.55312 34.1366 7.06562 38.3378Z" fill="#097629"/>
</svg>
