<svg width="72" height="56" viewBox="0 0 72 56" fill="none" xmlns="http://www.w3.org/2000/svg">
<path d="M35.9938 0C25.8946 0 17.8078 4.6 11.9208 10.075C6.07135 15.5 2.15919 22 0.309348 26.4625C-0.103116 27.45 -0.103116 28.55 0.309348 29.5375C2.15919 34 6.07135 40.5 11.9208 45.925C17.8078 51.4 25.8946 56 35.9938 56C46.0929 56 54.1797 51.4 60.0667 45.925C65.9162 40.4875 69.8283 34 71.6906 29.5375C72.1031 28.55 72.1031 27.45 71.6906 26.4625C69.8283 22 65.9162 15.5 60.0667 10.075C54.1797 4.6 46.0929 0 35.9938 0ZM17.9953 28C17.9953 23.2261 19.8916 18.6477 23.2669 15.2721C26.6423 11.8964 31.2203 10 35.9938 10C40.7672 10 45.3452 11.8964 48.7206 15.2721C52.0959 18.6477 53.9922 23.2261 53.9922 28C53.9922 32.7739 52.0959 37.3523 48.7206 40.7279C45.3452 44.1036 40.7672 46 35.9938 46C31.2203 46 26.6423 44.1036 23.2669 40.7279C19.8916 37.3523 17.9953 32.7739 17.9953 28ZM35.9938 20C35.9938 24.4125 32.4066 28 27.9944 28C27.107 28 26.2571 27.85 25.4572 27.5875C24.7697 27.3625 23.9698 27.7875 23.9948 28.5125C24.0323 29.375 24.1573 30.2375 24.3948 31.1C26.1071 37.5 32.694 41.3 39.0935 39.5875C45.4929 37.875 49.2926 31.2875 47.5802 24.8875C46.1929 19.7 41.6058 16.2125 36.5062 16C35.7813 15.975 35.3563 16.7625 35.5813 17.4625C35.8438 18.2625 35.9938 19.1125 35.9938 20Z" fill="white"/>
</svg>
